<?xml version="1.0" encoding="utf-8"?>
<!-- Uploaded to: SVG Repo, www.svgrepo.com, Generator: SVG Repo Mixer Tools -->
<svg width="800px" height="800px" viewBox="0 0 1024 1024" class="icon"  version="1.1" xmlns="http://www.w3.org/2000/svg"><path d="M503.53152 354.6624m-262.5024 0a262.5024 262.5024 0 1 0 525.0048 0 262.5024 262.5024 0 1 0-525.0048 0Z" fill="#F2FAFE" /><path d="M279.42912 735.70304v-0.04096l-3.47136 0.04096C164.33152 735.70304 73.6256 646.92224 71.71072 536.6784L71.68 533.1456C71.68 421.2736 163.14368 330.57792 275.968 330.57792c102.912 0 188.04736 75.4688 202.20928 173.62944h4.47488v-1.36192c0-127.32416 103.04512-230.77888 230.94272-232.83712l3.8912-0.03072C847.17568 269.9776 952.32 374.24128 952.32 502.8352c0 128.6144-105.14432 232.86784-234.83392 232.86784l2.60096-0.03072v0.03072H279.43936zM313.67168 782.6432a29.63456 29.63456 0 0 1 17.7152 37.9904l-31.85664 87.52128a29.63456 29.63456 0 1 1-55.7056-20.2752l31.85664-87.53152a29.63456 29.63456 0 0 1 37.9904-17.7152zM720.11776 782.6432a29.63456 29.63456 0 0 1 17.7152 37.9904l-31.85664 87.52128a29.63456 29.63456 0 1 1-55.7056-20.2752l31.86688-87.53152a29.63456 29.63456 0 0 1 37.9904-17.7152zM533.83168 782.6432a29.63456 29.63456 0 0 1 17.7152 37.9904l-31.85664 87.52128a29.63456 29.63456 0 1 1-55.7056-20.2752l31.85664-87.53152a29.63456 29.63456 0 0 1 37.9904-17.7152z" fill="#DFF1FB" /></svg>