<?xml version="1.0" encoding="utf-8"?>
<!-- Uploaded to: SVG Repo, www.svgrepo.com, Generator: SVG Repo Mixer Tools -->
<svg width="800px" height="800px" viewBox="0 -30.94 299.653 299.653" xmlns="http://www.w3.org/2000/svg"><defs><style>.a{fill:#bce2ef;}.b{fill:#211715;}.c{fill:#ffffff;}.d{fill:#79c6e0;}.e{fill:#7a7473;}</style></defs><path class="a" d="M129.056,32.406c.043,19.492.394,125.1.478,154.451l17.142,0c-.1-27.783-.4-143.273-.392-154.438Z"/><path class="a" d="M118.565,32.4c-31.289-.019-60.845-.035-72.282-.04C46.3,51.17,46.55,149.6,46.657,182.2c.006,1.75.011,3.311.016,4.659l72.293,0C118.915,164.42,118.6,53.348,118.565,32.4Z"/><path class="b" d="M117.552,97.274h-7.259c0,3.6,0,22.13-.01,24.99.872,0,5.344.038,8.532.061-.028-8.189-.054-16.684-.079-25.051Z"/><path class="c" d="M146.284,35.589c.025,21.778.3,125.15.389,151.255l10.61,0c-.113-25.578-.448-133.126-.478-154.415l-10.522-.007C146.282,33.1,146.283,34.171,146.284,35.589Z"/><path class="c" d="M118.563,32.406c.01,14.863.372,137.31.407,154.453,3.28,0,6.823-.006,10.57-.008-.076-26.722-.469-141.563-.487-154.446C125.51,32.4,122.006,32.4,118.563,32.406Z"/><path class="d" d="M244.312,184.24c-.09-39.9-.315-112.992-.375-151.748-13.65-.015-49.827-.042-87.134-.068,0,12.3.361,127.526.48,154.429,26.811-.015,69.1-.045,87.035-.057Q244.315,185.542,244.312,184.24Z"/><path class="c" d="M74.82,20.51c-6.269-.005-11.43-.01-15.129-.015,0,0-8.757,0-13.255-.01.077,4.03.143,7.944.136,11.873-3.75-.008,164.582.1,197.365.134.061,39.6.295,115.043.381,154.3-24.142.016-92.377.065-107.664.065h-8.786c0,3.183-.047,7.553-.047,11.94,5.965-.007,10.957-.007,10.957-.007,31.2-.059,97.026-.144,117.164-.145-.05-25.018-.389-161.1-.4-178.054C236.384,20.6,122.942,20.549,74.82,20.51Z"/><path class="b" d="M118.733,120.334c-2.817-.019-5.633-.065-8.45-.07l2,2c.027-8.33.01-16.66.01-24.99l-2,2h8.36c2.574,0,2.578-4,0-4h-8.36a2.03,2.03,0,0,0-2,2c0,8.33.017,16.66-.01,24.99a2.028,2.028,0,0,0,2,2c2.817.005,5.633.051,8.45.07,2.574.018,2.577-3.982,0-4Z"/><path class="b" d="M144.283,32.414c0,5.68.014,11.359.026,17.038q.033,16.167.074,32.332.046,19.522.1,39.045.049,18.59.1,37.178.038,13.331.081,26.661,0,1.1.008,2.2c.009,2.574,4.009,2.579,4,0q-.045-12.435-.078-24.872-.052-18.181-.1-36.364-.053-19.64-.1-39.277-.042-16.8-.078-33.608-.021-9.662-.033-19.324v-1c0-2.574-4-2.578-4,0Z"/><path class="b" d="M154.8,32.424c0,5.672.018,11.344.033,17.016q.042,16.2.092,32.409.059,19.57.122,39.14.06,18.594.125,37.187.045,13.274.1,26.548l.009,2.13c.011,2.574,4.011,2.579,4,0q-.055-12.366-.095-24.731-.064-18.181-.123-36.363Q159,106.078,158.941,86.4q-.051-16.842-.1-33.684-.025-9.659-.041-19.318v-.969c0-2.574-4-2.578-4,0Z"/><path class="b" d="M52.432,34.357q9.592,0,19.185.011l40.377.026,49.563.034,47.074.034,32.818.027,2.488,0-2-2q.045,29.27.132,58.538.086,32.8.175,65.592.039,15.087.074,30.174l2-2-42.641.029-48.328.03q-8.347,0-16.695.006c-2.574,0-2.578,4,0,4q18.161,0,36.32-.017l50.1-.034,21.246-.014a2.029,2.029,0,0,0,2-2q-.063-29.149-.149-58.3-.088-32.83-.171-65.661-.034-15.173-.061-30.346a2.03,2.03,0,0,0-2-2q-15.177-.016-30.352-.026l-46.116-.034L117.587,30.4,75.592,30.37q-11.171-.006-22.342-.012h-.818c-2.574,0-2.578,4,0,4Z"/><path class="b" d="M116.563,32.394q.006,9.969.045,19.937.045,17.228.1,34.455.057,19.649.117,39.3.051,16.819.1,33.639.025,9,.048,18.008,0,.323,0,.644c0,2.574,4,2.578,4,0,0-5.153-.025-10.306-.04-15.459q-.047-16.083-.1-32.165l-.117-39.164q-.052-17.837-.1-35.672-.03-11.1-.053-22.206,0-.657,0-1.314c0-2.573-4-2.578-4,0Z"/><path class="b" d="M127.053,32.4q.012,9.016.057,18.033.057,15.663.121,31.325.071,17.822.142,35.643.06,15.232.12,30.465.033,8.3.059,16.6c0,.2,0,.407,0,.61,0,2.574,4,2.578,4,0,0-4.725-.03-9.45-.048-14.174q-.055-14.669-.116-29.337-.07-17.764-.142-35.529-.063-16.108-.124-32.215-.037-10.122-.068-20.242c0-.393,0-.787,0-1.18,0-2.573-4-2.578-4,0Z"/><path class="b" d="M230.728,160.811c2.911-3.368,7.424-4.49,11.74-3.97,4.833.583,9.16,3.374,12.767,6.491,4.106,3.546,7.607,7.714,11.552,11.43a38.315,38.315,0,0,0,13.5,8.627,33.429,33.429,0,0,0,17.926,1.083c2.517-.531,1.452-4.388-1.064-3.858a29.4,29.4,0,0,1-15.8-1.082c-5.192-1.824-9.424-5.267-13.284-9.1-7.384-7.325-14.671-16.5-25.78-17.612-5.235-.524-10.876,1.1-14.389,5.16-1.676,1.939,1.142,4.78,2.828,2.828Z"/><path class="b" d="M223.848,176.731c11.171.581,17.782,11.892,21.962,20.886,4.831,10.394,9.43,21.549,20.285,26.984a32.611,32.611,0,0,0,19.465,2.96,2.013,2.013,0,0,0,1.4-2.46,2.051,2.051,0,0,0-2.46-1.4,27.929,27.929,0,0,1-16.383-2.557,29.586,29.586,0,0,1-11.923-11.513c-5.828-9.592-8.609-20.818-16.567-29.077-4.22-4.38-9.611-7.506-15.776-7.826-2.573-.134-2.565,3.867,0,4Z"/><path class="b" d="M138.778,200.794q23.76-.045,47.52-.074,25.273-.035,50.546-.06,9.549-.007,19.1-.011a2.029,2.029,0,0,0,2-2q-.025-12.875-.058-25.748l-.1-40.65q-.054-22.8-.107-45.6-.046-20.085-.09-40.172-.027-12.211-.046-24.423,0-.727,0-1.456a2.028,2.028,0,0,0-2-2q-12.42,0-24.839-.006-20.94-.006-41.881-.016-24.549-.011-49.1-.023-22.746-.012-45.491-.026-16.02-.011-32.039-.026l-2.5,0c-2.574,0-2.578,4,0,4q14.886.019,29.771.026,22.2.015,44.4.026l49.244.024,43.255.017q13.707,0,27.413.007h1.767l-2-2q.007,10.97.039,21.94.041,19.35.086,38.7.053,22.746.107,45.492l.1,41.9q.033,13.992.064,27.983,0,1.017,0,2.034l2-2q-19.815,0-39.629.033-26.37.03-52.74.071-12.4.018-24.8.041c-2.574,0-2.579,4,0,4Z"/><path class="c" d="M229.635,67.174a3.376,3.376,0,0,0,.871-3.26,4.084,4.084,0,0,0-1.13-1.629,11.461,11.461,0,0,0-5.574-1.963c-3.185-.494-6.675-.111-9.9-.138s-7.9-.362-9.935-2.862c-.651-.8-.338-2.092-1.056-2.834a7.084,7.084,0,0,0-5.148-2.074c-9.481-.74-12.907.019-20.241,1.3-3.305.694-3.651,1.214-4.111,2a3.3,3.3,0,0,0,.75,4.055c1.074.815,3.273,1.262,4.834,1.556s4.785.468,5.8,1.685c1.046,1.247.7,3.2,2.006,4.59a7.792,7.792,0,0,0,3.476,2.151c6.129,1.768,10.835,1.832,17.4,1.26l14.173-1.236C224.537,69.539,228.192,68.813,229.635,67.174Z"/><path class="c" d="M92.216,52.868l7.372-8.151a2,2,0,1,0-2.828-2.828L89.388,50.04a2,2,0,1,0,2.828,2.828Z"/><path class="c" d="M96.883,65.175,111.82,48.659a2.044,2.044,0,0,0,0-2.829,2.02,2.02,0,0,0-2.828,0L94.055,62.347a2.043,2.043,0,0,0,0,2.828,2.019,2.019,0,0,0,2.828,0Z"/><path class="c" d="M4.366,5.005l-.037,0A2.475,2.475,0,0,0,2,7.587c.146,3.47.686,8.9,1.229,13.8.842,7.6,1.884,15.257,2.48,22.892.594,7.6,2.095,14.63,3.39,22.171,1.262,7.348,6.3,28.427,6.531,35.744l.022.687c-2.295,1.089-3.794,3.446-3.951,8.687-.12,4.008-.62,7.737,1.489,9.109.873.568,2.852.813,4.8.89-3.089,14.93-7,29.706-10.14,44.586a198.441,198.441,0,0,0-3.97,49.09c.124,2.08,1.432,4.548,4.043,4.662H41.473V101.85c.348-8.932,8.821-39.772,9.518-46.2,1.954-17.834.935-31.426.839-49.23a2.487,2.487,0,0,0-2.576-2.481c-5.663.214-13.524.133-19.4-.052C27.408,3.81,25.074,2.1,23.621,2c-2.642-.182-5.565,1.666-8.812,1.994C11.256,4.35,7.591,4.825,4.366,5.005Z"/><path class="b" d="M14.2,118.954c-.675-.487-.615-2.011-.631-2.73-.039-1.751.065-3.519.158-5.266.11-2.083.493-4.472,1.987-5.775a4.858,4.858,0,0,1,1.84-.861,10.947,10.947,0,0,1,2.493-.357c2.668-.171,5.364-.27,8.036-.323,3.761-.074,7.519.1,11.275.278,1.628.078,2.156.19,2.16,1.863,0,1.607-.032,3.215-.092,4.82-.062,1.663-.15,3.324-.278,4.982-.05.645.136,2.725-.52,3.127a4.377,4.377,0,0,1-1.516.082l-2.014.087-4.424.19q-5.028.216-10.055.435c-1.511.065-3.019.125-4.531.069a9.98,9.98,0,0,1-3.888-.621c-2.228-1.3-4.244,2.156-2.019,3.454,2.692,1.571,6.589,1.265,9.586,1.134l10.349-.447,5.308-.228a15.356,15.356,0,0,0,4.593-.429c2.012-.758,2.708-2.541,2.92-4.526.2-1.889.327-3.787.42-5.684.1-1.968.154-3.938.161-5.909.006-1.919-.148-3.746-1.706-5.084-1.716-1.473-4-1.3-6.122-1.393-2.243-.1-4.487-.193-6.733-.214-3.472-.031-6.957.131-10.425.31-2.35.121-4.864.391-6.843,1.783-2.922,2.055-3.746,5.662-3.952,9.036-.231,3.792-1.09,9.1,2.444,11.651a2.014,2.014,0,0,0,2.736-.717A2.045,2.045,0,0,0,14.2,118.954Z"/><path class="b" d="M17.632,102.2c-.226-6.216-1.747-12.483-2.984-18.555s-2.643-12.1-3.7-18.2c-.907-5.228-1.957-10.437-2.657-15.7-.714-5.373-1.028-10.8-1.643-16.187-.6-5.264-1.26-10.52-1.805-15.79-.253-2.445-.49-4.893-.67-7.345-.064-.878-.188-1.792-.163-2.673.025-.819.362-.738,1.174-.794,4.955-.34,10.054-.68,14.79-2.222a13.671,13.671,0,0,1,2.776-.725A4.328,4.328,0,0,1,25,4.528a18.009,18.009,0,0,0,3.11,1.128,19.526,19.526,0,0,0,3.639.285c4.569.119,9.142.166,13.713.095Q47,6.012,48.535,5.964c.954-.031,1.278-.089,1.3.95.049,2.621.054,5.244.1,7.865.173,9.839.458,19.683-.037,29.518q-.194,3.852-.54,7.7c-.112,1.238-.245,2.472-.371,3.708-.049.479.005-.012,0,.029-.031.2-.06.39-.092.585-.353,2.146-.838,4.272-1.316,6.393C46.163,68.981,44.63,75.226,43.2,81.5c-1.331,5.819-2.7,11.671-3.466,17.6-.118.917-.22,1.836-.259,2.759-.112,2.574,3.889,2.569,4,0a42.441,42.441,0,0,1,.854-6.377c.569-3.131,1.235-6.245,1.924-9.352,1.483-6.685,3.109-13.338,4.648-20.01.57-2.47,1.141-4.942,1.617-7.432a88.081,88.081,0,0,0,1.128-10.237c.732-10.217.54-20.452.344-30.684q-.077-3.963-.129-7.927c-.027-2.377.395-5.106-1.626-6.824C50.427,1.473,47.852,2,45.665,2.033c-2.365.039-4.731.041-7.1.023q-3.6-.029-7.2-.125a10.492,10.492,0,0,1-2.974-.346c-1.08-.339-2.083-.868-3.148-1.247-2.025-.72-4.17-.161-6.142.474-1.114.359-2.22.751-3.364,1.006a36.107,36.107,0,0,1-3.966.5C9.185,2.6,6.58,2.75,4,3.048A4.531,4.531,0,0,0,0,7.587,62.292,62.292,0,0,0,.488,14.17c.239,2.571.51,5.14.8,7.706C1.92,27.559,2.654,33.23,3.228,38.92c.549,5.454.982,10.887,1.871,16.3C6.351,62.849,7.808,70.432,9.4,78c1.436,6.836,3.042,13.921,3.921,20.719.15,1.156.273,2.318.315,3.484.093,2.566,4.094,2.578,4,0Z"/><path class="b" d="M35.871,33.393c-.936,7.264-1.813,14.543-2.314,21.852-.176,2.57,3.825,2.559,4,0,.5-7.309,1.378-14.588,2.314-21.852a2.01,2.01,0,0,0-2-2,2.051,2.051,0,0,0-2,2Z"/><path class="b" d="M15.648,123.04c-3.085,14.533-6.912,28.9-9.9,43.455a200.83,200.83,0,0,0-4.1,39.968,66.455,66.455,0,0,0,.334,9.6,6.526,6.526,0,0,0,5.947,5.844c2.564.221,2.549-3.78,0-4-2.23-.191-2.088-3.292-2.154-4.852-.115-2.737-.147-5.478-.117-8.218.068-6.144.444-12.285,1.072-18.4,1.37-13.337,4.431-26.338,7.512-39.362,1.809-7.646,3.631-15.291,5.264-22.978.533-2.51-3.322-3.584-3.858-1.063Z"/><path class="c" d="M82.74,237.318c.158-2.655-.222-7.111-.222-11.111l-.6-14.85q1.7,1.188,3.474,2.256c1.926-5.288,5.431-14.5,6.832-18.214l7.206-19.1c-5.111-4.555-9.918-8.572-14.578-13.493-2.414-2.55-4.957-5.181-8.071-6.7a9.351,9.351,0,0,0-3.222-7.274,21.8,21.8,0,0,0-6.963-4.022c-3.9-1.556-11.351-2.4-16.537-1.805l-11.68,1.316A35.074,35.074,0,0,0,22.044,158.53C17.7,165.8,16.161,174.348,14.7,182.687c-3.784,21.565-2.254,31.742-2.254,53.075Z"/><path class="c" d="M103.028,214.322a11.414,11.414,0,0,0,7.728-.17,16.407,16.407,0,0,0,4.37-2.548c9.158-7.264,20.694-21.481,26.972-34.745a14.641,14.641,0,0,1,7.794-7.167c3.205-1.2,6.088-1.771,8.421-2.8a9.621,9.621,0,0,0,2.982-1.9,5.945,5.945,0,0,0,1.943-3.883,18.737,18.737,0,0,0-.292-3.877c-1.314-4.5.22-8.341-2.609-12.16a9.075,9.075,0,0,0,.318-4.2c-.263-2.316-.73-3.6-2.578-4.314a4.66,4.66,0,0,0-1.661-.35,6.453,6.453,0,0,0-3.066.892,50.221,50.221,0,0,0-8.274,5.109c.2-3.043-2.066-5.863-3.982-5.535a4.606,4.606,0,0,0-3.358,3.2c-3.183,8.369-4.074,9.594-5.579,19.446a14.171,14.171,0,0,1-1.482,3.958c-2.573,3.845-16.431,21.581-19.206,22.984a6.4,6.4,0,0,1-3.259.926,9.694,9.694,0,0,1-4.3-1.815c-.815-.592-4.324-3.778-4.815-4.3l-1.05-1.11L92.226,195.4c-.871,2.308-2.555,6.743-4.168,11.038l1.337.94a57.04,57.04,0,0,0,13.3,6.845C102.805,214.257,102.917,214.29,103.028,214.322Z"/><path class="c" d="M55.106,96.432c.26-.514.559-1.042.918-1.608,3.449-4.991,9.049-10.915,16.378-13.553,0,0,5.622-2.17,9.311-.483.128.473.251.967.369,1.486a38.219,38.219,0,0,1,1.321,6.48c.966,4.9,2.294,11.7,7.2,13.388a4.632,4.632,0,0,1,2.438,1.75c1.487,2.273-.438,3.723-1.513,5.354a7.612,7.612,0,0,0-1.179,3.481,46.869,46.869,0,0,1,.182,7.257,20.352,20.352,0,0,1-.808,5.026,9.537,9.537,0,0,1-4.38,5.636c-3.5,1.984-8.519,3.324-11.971,2.982a1.653,1.653,0,0,0-1.771,1.287c-.078.344-.682,8.766-.874,10.42-1.411,12.19-32.3,8.635-31.334,1.9.134-.932.557-4.405.618-6.81a10.841,10.841,0,0,0-.366-2.982,9.182,9.182,0,0,0-2.367-3.828c4.54-3.651,9.448-11.788,10.26-16.532,0,0,.028-.163.075-.447a12.108,12.108,0,0,1-4.5-7.374c-.441-2.014-.112-4.606,1.308-6.057a4.757,4.757,0,0,1,3.865-1.278,6.771,6.771,0,0,1,4.105,2.068C53.61,100.547,54,98.621,55.106,96.432Z"/><path class="e" d="M50.362,59.764a43.979,43.979,0,0,1,7.041.65c11.865,2.04,18.338,9.12,19.512,10.74a26.706,26.706,0,0,1,4.8,9.64c-3.687-1.694-9.312.477-9.312.477-7.329,2.638-12.929,8.562-16.378,13.553-1.887,2.977-2.128,4.914-3.631,9.169a6.771,6.771,0,0,0-4.105-2.068,4.757,4.757,0,0,0-3.865,1.278c-1.42,1.451-1.749,4.043-1.308,6.057a12.108,12.108,0,0,0,4.5,7.374c-.047.284-.075.447-.075.447-.812,4.744-5.721,12.882-10.262,16.533-2.335-2.46-5.767-4.553-8.039-6.328a39.22,39.22,0,0,1-14.953-25.392,38.688,38.688,0,0,1,3.1-20.542C24.048,66.906,33.625,63.011,39.63,61.225A36.369,36.369,0,0,1,50.362,59.764Z"/><path class="b" d="M79.692,81.388c1.918,5.572,1.855,11.626,4.435,17a10.673,10.673,0,0,0,5.387,5.457c.8.329,2.308.824,2.009,1.952a4.241,4.241,0,0,1-.816,1.227,11.924,11.924,0,0,0-1.494,2.316c-1.368,3.056-.528,6.466-.636,9.713-.1,3.029-.458,6.431-2.7,8.7-1.921,1.94-5.054,2.872-7.639,3.465a16.361,16.361,0,0,1-3.879.459c-1.767-.024-3.442.119-4.364,1.894-.812,1.564-.671,3.939-.828,5.642a58.858,58.858,0,0,0-.431,6.119c.033,2.572,4.033,2.579,4,0a54.859,54.859,0,0,1,.38-5.567q.128-1.416.27-2.833c.039-.388.078-.777.121-1.166.015-.14.034-.281.046-.422.047-.517.012.27-.02.129s-.17.135-.152.152c.1.1.655.044.811.048a15.205,15.205,0,0,0,1.932-.081,25.9,25.9,0,0,0,5.1-1.039c2.735-.853,5.721-2.053,7.7-4.207,2.291-2.493,3.176-5.708,3.506-9a41,41,0,0,0,.142-5.429c-.047-1.4-.4-2.911.021-4.266.43-1.4,1.517-2.322,2.229-3.554a4.792,4.792,0,0,0,.325-4.489,6.4,6.4,0,0,0-3.648-3.262,6.081,6.081,0,0,1-2.588-1.793c-1.746-2.094-2.437-5-3.017-7.6-.8-3.562-1.151-7.159-2.346-10.631-.832-2.42-4.7-1.38-3.857,1.064Z"/><path class="b" d="M84.063,81.982a29.758,29.758,0,0,0-6.3-12.949,30.562,30.562,0,0,0-8.59-6.654,40.641,40.641,0,0,0-33.477-1.922C26.242,64.172,19.374,71.812,15.355,81.04a39.625,39.625,0,0,0,2.139,35.934,42.7,42.7,0,0,0,9.817,11.316c2.127,1.718,4.46,3.162,6.566,4.9,2.4,1.984,4.144,3.976,4.139,7.229,0,2.574,4,2.578,4,0a11.271,11.271,0,0,0-2.788-7.636,32.265,32.265,0,0,0-5.942-5.017,47.368,47.368,0,0,1-8.774-7.8,35.552,35.552,0,0,1-7.535-31.175c2.243-9.511,8.287-18.648,17.075-23.233,8.761-4.571,20.021-4.989,29.432-1.419A29.607,29.607,0,0,1,74.231,71.1q.557.578,1.063,1.2c-.522-.64.383.548.537.768.4.57.785,1.148,1.151,1.739a26.355,26.355,0,0,1,3.224,8.241c.571,2.509,4.428,1.447,3.857-1.063Z"/><path class="b" d="M45.614,116.549a23,23,0,0,1-3.389,7.968,30.082,30.082,0,0,1-6.018,7.4,2.019,2.019,0,0,0,0,2.829,2.042,2.042,0,0,0,2.829,0,33.929,33.929,0,0,0,6.642-8.211,27.059,27.059,0,0,0,3.793-8.923,2.057,2.057,0,0,0-1.4-2.461,2.019,2.019,0,0,0-2.461,1.4Z"/><path class="b" d="M73.143,78.9a32.26,32.26,0,0,0-14.827,9.791,34.139,34.139,0,0,0-4.694,6.267,52.119,52.119,0,0,0-3.017,8.1c-.838,2.44,3.024,3.488,3.858,1.064a45.868,45.868,0,0,1,2.613-7.143,29.461,29.461,0,0,1,4.069-5.457,28.433,28.433,0,0,1,13.062-8.763c2.469-.711,1.419-4.572-1.064-3.857Z"/><path class="b" d="M52.646,101.629a7.672,7.672,0,0,0-7.513-1.219c-2.659,1.084-3.925,3.623-4.167,6.367-.381,4.312,2.071,8.837,5.42,11.412a17.376,17.376,0,0,0,6.722,3.009c2.505.579,3.575-3.277,1.064-3.857a20.138,20.138,0,0,1-2.927-.9,13.087,13.087,0,0,1-1.385-.709q-.374-.218-.732-.462c-.043-.029-.5-.358-.283-.191a9.565,9.565,0,0,1-3.2-4.291c-.7-1.881-1.184-4.113-.072-5.826a2.525,2.525,0,0,1,2.154-1.052,4.492,4.492,0,0,1,2.9,1.177,2.01,2.01,0,0,0,2.736-.717,2.052,2.052,0,0,0-.717-2.736Z"/><path class="b" d="M78.842,81.185A18.024,18.024,0,0,0,82.591,83.1a1.506,1.506,0,0,0,.8.036,1.486,1.486,0,0,0,.743-.237,2,2,0,0,0,.718-2.737l-.313-.4a2,2,0,0,0-.883-.515q-.251-.1-.5-.2l.477.2a15.971,15.971,0,0,1-2.772-1.511,1.484,1.484,0,0,0-.744-.238,1.526,1.526,0,0,0-.8.036,2.043,2.043,0,0,0-1.2.919,2.018,2.018,0,0,0-.2,1.541l.2.478a2.006,2.006,0,0,0,.718.717Z"/><path class="b" d="M80.06,96.962c.738,1.328,1.209,4.656-1.284,5.5-3.383.734-4.46-3.176-3.744-5.287C75.618,95.451,78.212,94.206,80.06,96.962Z"/><path class="b" d="M37.371,142.6a37.229,37.229,0,0,0-15.085,11.988c-4.233,5.668-6.472,12.519-7.958,19.361a180.459,180.459,0,0,0-4.186,39.33c.041,7.5.3,14.99.3,22.487,0,2.574,4,2.578,4,0-.007-12.37-.806-24.777.174-37.128a187.336,187.336,0,0,1,2.868-20.172c1.268-6.667,2.9-13.416,6.488-19.259A33.509,33.509,0,0,1,39.39,146.05a2.013,2.013,0,0,0,.718-2.737,2.053,2.053,0,0,0-2.737-.717Z"/><path class="b" d="M50.061,145.007a37.549,37.549,0,0,1,14.614,1.252c4.4,1.334,10.258,4.381,10.118,9.711-.068,2.575,3.932,2.573,4,0,.182-6.935-6.165-11.032-11.923-13.187a33.469,33.469,0,0,0-8.06-1.679,40.431,40.431,0,0,0-8.749-.1,2.059,2.059,0,0,0-2,2,2.014,2.014,0,0,0,2,2Z"/><path class="b" d="M146.883,140.048c-.893-3.613-4.209-6.718-7.956-4.654a7.685,7.685,0,0,0-3.269,4.346q-.916,2.358-1.827,4.721a54.953,54.953,0,0,0-2.362,7.485c-.788,3.466-.879,7.127-2.521,10.327-1.174,2.286,2.277,4.312,3.454,2.019A16.174,16.174,0,0,0,134.063,160c.307-1.643.519-3.3.836-4.944a49.516,49.516,0,0,1,1.75-6.7c.829-2.416,1.805-4.781,2.719-7.166.3-.789.849-2.453,1.948-2.49.943-.032,1.518,1.639,1.71,2.416.618,2.5,4.476,1.439,3.857-1.064Z"/><path class="b" d="M80.518,224.651c0,3.7.427,7.417.222,11.111a2.012,2.012,0,0,0,2,2,2.045,2.045,0,0,0,2-2c.2-3.694-.217-7.414-.222-11.111a2,2,0,0,0-4,0Z"/><path class="b" d="M143.825,177.868c1.794-3.729,4.992-5.793,8.83-7.01,3.747-1.189,8.112-1.988,10.734-5.2,2.528-3.095,1.877-6.6,1.185-10.2-.359-1.866-.249-3.789-.466-5.672a12.052,12.052,0,0,0-2.044-5.718l.2,1.541c1.339-4.15.38-10.167-4.522-11.235-2.753-.6-5.261.858-7.588,2.145a54.32,54.32,0,0,0-7.294,4.9,2.012,2.012,0,0,0,0,2.829,2.051,2.051,0,0,0,2.828,0,48.1,48.1,0,0,1,6.289-4.17c1.566-.877,3.822-2.563,5.655-1.531,1.265.712,1.175,3.112,1.109,4.345-.047.894-.577,1.83-.334,2.713.278,1.014,1.118,1.827,1.416,2.879.577,2.035.4,4.2.635,6.284.212,1.872.742,3.61.781,5.5.093,4.535-5.642,5.494-9.005,6.526a21.588,21.588,0,0,0-7.255,3.433,16.139,16.139,0,0,0-4.61,5.616c-1.11,2.309,2.338,4.341,3.454,2.019Z"/><path class="b" d="M89.419,113.9c-.358.2-.724.373-1.1.534l.478-.2a10.241,10.241,0,0,1-2.536.724l.531-.071a6.574,6.574,0,0,1-1.67.021l.532.072a3.777,3.777,0,0,1-.75-.172,2,2,0,0,0-2.46,1.4,2.053,2.053,0,0,0,1.4,2.461,6.021,6.021,0,0,0,1.389.256,6.452,6.452,0,0,0,1.4-.014,12.958,12.958,0,0,0,4.8-1.552,2.018,2.018,0,0,0,.717-2.736,2.041,2.041,0,0,0-2.736-.718Z"/><path class="b" d="M75.765,209.232a80.337,80.337,0,0,0,8.62,6.108,2.028,2.028,0,0,0,2.938-1.195c3.96-10.86,8.127-21.647,12.208-32.462l1.829-4.848a1.948,1.948,0,0,0-.514-1.946c-4.363-3.883-8.828-7.663-12.946-11.811-3.751-3.778-7.229-7.919-12.453-9.646-2.45-.81-3.5,3.051-1.063,3.857,4.741,1.567,7.927,5.889,11.344,9.273,3.933,3.894,8.157,7.477,12.29,11.155l-.515-1.945q-4.554,12.068-9.112,24.135c-1.658,4.385-3.319,8.77-4.925,13.174l2.938-1.195a72.378,72.378,0,0,1-7.81-5.482,2.06,2.06,0,0,0-2.829,0,2.015,2.015,0,0,0,0,2.828Z"/><path class="b" d="M128.948,162.273c-2.969,4.411-6.4,8.561-9.762,12.674-1.918,2.349-3.861,4.686-5.917,6.916-.686.745-1.382,1.487-2.134,2.165-.128.116-.262.225-.39.34-.2.183.4-.186-.049.03a6,6,0,0,1-2.017.8,5.644,5.644,0,0,1-3.127-1.12c-.215-.135-.423-.277-.629-.424.471.335.03.021-.072-.066-.3-.256-.6-.507-.89-.765-1.168-1.021-2.365-2.04-3.448-3.152-1.8-1.847-4.627.983-2.829,2.828,2.3,2.358,5,4.963,8.118,6.14,3.338,1.261,6.442-.058,8.832-2.417,4.619-4.559,8.612-9.862,12.583-14.98,1.767-2.279,3.573-4.552,5.185-6.946,1.441-2.142-2.023-4.146-3.454-2.019Z"/><path class="b" d="M88.385,209.1a56.642,56.642,0,0,0,12.531,6.621,14.331,14.331,0,0,0,14.545-1.882,68.084,68.084,0,0,0,9.892-9.173,122.235,122.235,0,0,0,9.656-11.982,100.176,100.176,0,0,0,8.816-14.82c1.1-2.312-2.345-4.344-3.454-2.019a105.9,105.9,0,0,1-15.823,23.73,89.477,89.477,0,0,1-9.061,9.142,18.063,18.063,0,0,1-5.482,3.581,10.4,10.4,0,0,1-6.912-.05,48.3,48.3,0,0,1-12.689-6.6c-2.117-1.474-4.118,1.992-2.019,3.454Z"/><path class="b" d="M64.671,153.49a19.088,19.088,0,0,0-11.205,12.925,28.926,28.926,0,0,0,1.518,18.122,2.063,2.063,0,0,0,2.46,1.4,2.013,2.013,0,0,0,1.4-2.46c-1.925-4.8-2.876-10.1-1.713-15.207a15.116,15.116,0,0,1,8.606-10.92,2.067,2.067,0,0,0,1.4-2.46,2.011,2.011,0,0,0-2.46-1.4Z"/></svg>